<svg width="1200" height="520" viewBox="0 0 1200 520" fill="none" xmlns="http://www.w3.org/2000/svg" role="img" aria-labelledby="title desc">
  <title id="title">MarkdownEverything hero</title>
  <desc id="desc">A product hero showing webpages, files, audio, and video flowing into clean Markdown for AI knowledge systems.</desc>
  <defs>
    <linearGradient id="bg" x1="0" y1="0" x2="1200" y2="520" gradientUnits="userSpaceOnUse">
      <stop stop-color="#08111f"/>
      <stop offset="0.52" stop-color="#0f1f2a"/>
      <stop offset="1" stop-color="#182614"/>
    </linearGradient>
    <linearGradient id="panel" x1="145" y1="85" x2="1056" y2="456" gradientUnits="userSpaceOnUse">
      <stop stop-color="#122033"/>
      <stop offset="1" stop-color="#152a20"/>
    </linearGradient>
    <linearGradient id="accent" x1="228" y1="136" x2="957" y2="384" gradientUnits="userSpaceOnUse">
      <stop stop-color="#69d2ff"/>
      <stop offset="0.48" stop-color="#9cffc7"/>
      <stop offset="1" stop-color="#ffd166"/>
    </linearGradient>
    <filter id="shadow" x="88" y="44" width="1024" height="456" filterUnits="userSpaceOnUse" color-interpolation-filters="sRGB">
      <feDropShadow dx="0" dy="24" stdDeviation="26" flood-color="#000000" flood-opacity="0.36"/>
    </filter>
  </defs>

  <rect width="1200" height="520" rx="34" fill="url(#bg)"/>
  <path d="M94 392C210 281 307 333 407 228C514 116 640 104 763 151C884 197 925 302 1104 230" stroke="#f8fafc" stroke-opacity="0.08" stroke-width="2"/>
  <path d="M101 151C221 212 290 102 416 139C532 173 563 285 693 271C826 258 899 124 1088 169" stroke="#f8fafc" stroke-opacity="0.07" stroke-width="2"/>

  <g filter="url(#shadow)">
    <rect x="124" y="72" width="952" height="376" rx="28" fill="url(#panel)" stroke="#ffffff" stroke-opacity="0.10"/>
    <rect x="156" y="104" width="888" height="312" rx="22" fill="#0a1220" fill-opacity="0.56" stroke="#ffffff" stroke-opacity="0.08"/>
  </g>

  <text x="184" y="156" fill="#f8fafc" font-family="Inter, Segoe UI, Arial, sans-serif" font-size="44" font-weight="760" letter-spacing="0">MarkdownEverything</text>
  <text x="186" y="194" fill="#b7c5d6" font-family="Inter, Segoe UI, Arial, sans-serif" font-size="18" letter-spacing="0">Turn messy public content into clean Markdown for people, AI, RAG, agents, and knowledge bases.</text>

  <g transform="translate(184 242)">
    <rect width="174" height="64" rx="14" fill="#14243a" stroke="#ffffff" stroke-opacity="0.10"/>
    <circle cx="34" cy="32" r="17" fill="#69d2ff" fill-opacity="0.16"/>
    <path d="M24 34h20M24 28h20M29 22h10M29 40h10" stroke="#69d2ff" stroke-width="3" stroke-linecap="round"/>
    <text x="64" y="28" fill="#f8fafc" font-family="Inter, Segoe UI, Arial, sans-serif" font-size="15" font-weight="700">Webpages</text>
    <text x="64" y="48" fill="#8fa2b7" font-family="Inter, Segoe UI, Arial, sans-serif" font-size="12">render + extract</text>
  </g>

  <g transform="translate(184 326)">
    <rect width="174" height="64" rx="14" fill="#14243a" stroke="#ffffff" stroke-opacity="0.10"/>
    <circle cx="34" cy="32" r="17" fill="#9cffc7" fill-opacity="0.16"/>
    <path d="M28 20h14l8 8v16H28V20Z" stroke="#9cffc7" stroke-width="3" stroke-linejoin="round"/>
    <path d="M42 20v9h8" stroke="#9cffc7" stroke-width="3" stroke-linejoin="round"/>
    <text x="64" y="28" fill="#f8fafc" font-family="Inter, Segoe UI, Arial, sans-serif" font-size="15" font-weight="700">Documents</text>
    <text x="64" y="48" fill="#8fa2b7" font-family="Inter, Segoe UI, Arial, sans-serif" font-size="12">PDF, DOCX, CSV</text>
  </g>

  <g transform="translate(410 242)">
    <rect width="174" height="64" rx="14" fill="#14243a" stroke="#ffffff" stroke-opacity="0.10"/>
    <circle cx="34" cy="32" r="17" fill="#ffd166" fill-opacity="0.17"/>
    <path d="M25 35c5-12 13-12 18 0M23 43h24M34 19v18" stroke="#ffd166" stroke-width="3" stroke-linecap="round"/>
    <text x="64" y="28" fill="#f8fafc" font-family="Inter, Segoe UI, Arial, sans-serif" font-size="15" font-weight="700">Audio</text>
    <text x="64" y="48" fill="#8fa2b7" font-family="Inter, Segoe UI, Arial, sans-serif" font-size="12">timestamped ASR</text>
  </g>

  <g transform="translate(410 326)">
    <rect width="174" height="64" rx="14" fill="#14243a" stroke="#ffffff" stroke-opacity="0.10"/>
    <circle cx="34" cy="32" r="17" fill="#fca5a5" fill-opacity="0.17"/>
    <path d="M24 23h19l7 6v12H24V23Z" stroke="#fca5a5" stroke-width="3" stroke-linejoin="round"/>
    <path d="m34 29 9 6-9 6V29Z" fill="#fca5a5"/>
    <text x="64" y="28" fill="#f8fafc" font-family="Inter, Segoe UI, Arial, sans-serif" font-size="15" font-weight="700">Video</text>
    <text x="64" y="48" fill="#8fa2b7" font-family="Inter, Segoe UI, Arial, sans-serif" font-size="12">files + public URLs</text>
  </g>

  <path d="M632 259h82" stroke="url(#accent)" stroke-width="4" stroke-linecap="round"/>
  <path d="M632 365h82" stroke="url(#accent)" stroke-width="4" stroke-linecap="round"/>
  <path d="m706 249 14 10-14 10" stroke="#9cffc7" stroke-width="4" stroke-linecap="round" stroke-linejoin="round"/>
  <path d="m706 355 14 10-14 10" stroke="#9cffc7" stroke-width="4" stroke-linecap="round" stroke-linejoin="round"/>

  <g transform="translate(742 222)">
    <rect width="272" height="176" rx="18" fill="#f8fafc"/>
    <rect x="24" y="24" width="90" height="14" rx="7" fill="#0f172a"/>
    <rect x="24" y="58" width="224" height="10" rx="5" fill="#cbd5e1"/>
    <rect x="24" y="82" width="196" height="10" rx="5" fill="#cbd5e1"/>
    <rect x="24" y="106" width="208" height="10" rx="5" fill="#cbd5e1"/>
    <rect x="24" y="136" width="72" height="10" rx="5" fill="#69d2ff"/>
    <rect x="110" y="136" width="60" height="10" rx="5" fill="#9cffc7"/>
    <rect x="184" y="136" width="52" height="10" rx="5" fill="#ffd166"/>
    <text x="24" y="168" fill="#334155" font-family="Inter, Segoe UI, Arial, sans-serif" font-size="12" font-weight="700">result.md</text>
  </g>

  <g opacity="0.9">
    <rect x="742" y="122" width="102" height="30" rx="15" fill="#69d2ff" fill-opacity="0.12" stroke="#69d2ff" stroke-opacity="0.45"/>
    <text x="768" y="142" fill="#bfecff" font-family="Inter, Segoe UI, Arial, sans-serif" font-size="13" font-weight="700">AI-ready</text>
    <rect x="858" y="122" width="86" height="30" rx="15" fill="#9cffc7" fill-opacity="0.12" stroke="#9cffc7" stroke-opacity="0.45"/>
    <text x="884" y="142" fill="#c7ffdf" font-family="Inter, Segoe UI, Arial, sans-serif" font-size="13" font-weight="700">RAG</text>
    <rect x="958" y="122" width="86" height="30" rx="15" fill="#ffd166" fill-opacity="0.12" stroke="#ffd166" stroke-opacity="0.45"/>
    <text x="982" y="142" fill="#ffe7a3" font-family="Inter, Segoe UI, Arial, sans-serif" font-size="13" font-weight="700">MCP</text>
  </g>
</svg>
